STARTFONT 2.1
FONT -Monotype-Arial Narrow-Bold-I-Normal--12-120-75-75-P-59-iso8859-2
SIZE 12 75 75
FONTBOUNDINGBOX 13 16 -2 -4

STARTPROPERTIES 24
FOUNDRY "Monotype"
FAMILY_NAME "Arial Narrow"
WEIGHT_NAME "Bold"
SLANT "I"
SETWIDTH_NAME "Normal"
ADD_STYLE_NAME ""
PIXEL_SIZE 12
POINT_SIZE 120
RESOLUTION_X 75
RESOLUTION_Y 75
SPACING "P"
AVERAGE_WIDTH 59
CHARSET_REGISTRY "iso8859"
CHARSET_ENCODING "2"
FACE_NAME "Arial Narrow Bold Italic ISO Latin2"
_DEC_DEVICE_FONTNAMES "PS=arialnarrow-bit-lat2"
COPYRIGHT "Copyright (c) 1994 Monotype Typography Ltd."
CAP_HEIGHT 11
X_HEIGHT 8
WEIGHT 10
QUAD_WIDTH 6
DEFAULT_CHAR 160
FONT_DESCENT 4
FONT_ASCENT 12
ENDPROPERTIES

CHARS 191

STARTCHAR space
ENCODING 32
SWIDTH 228 0
DWIDTH 3 0
BBX 0 0 0 0
BITMAP
ENDCHAR

STARTCHAR exclam
ENCODING 33
SWIDTH 273 0
DWIDTH 4 0
BBX 4 9 1 0
BITMAP
30
30
60
60
60
C0
C0
00
C0
ENDCHAR

STARTCHAR quotedbl
ENCODING 34
SWIDTH 389 0
DWIDTH 5 0
BBX 6 4 0 5
BITMAP
6C
6C
D8
D8
ENDCHAR

STARTCHAR numbersign
ENCODING 35
SWIDTH 456 0
DWIDTH 6 0
BBX 6 9 0 0
BITMAP
2C
28
FC
68
58
F8
50
50
D0
ENDCHAR

STARTCHAR dollar
ENCODING 36
SWIDTH 456 0
DWIDTH 6 0
BBX 6 11 0 -1
BITMAP
08
1C
2C
60
70
30
18
D8
D0
60
40
ENDCHAR

STARTCHAR percent
ENCODING 37
SWIDTH 729 0
DWIDTH 9 0
BBX 8 10 1 -1
BITMAP
63
A6
AC
AC
D8
33
35
65
C5
C6
ENDCHAR

STARTCHAR ampersand
ENCODING 38
SWIDTH 592 0
DWIDTH 8 0
BBX 7 9 1 0
BITMAP
10
38
6C
38
70
DA
CE
78
3E
ENDCHAR

STARTCHAR quoteright
ENCODING 39
SWIDTH 228 0
DWIDTH 3 0
BBX 2 4 1 5
BITMAP
C0
C0
40
80
ENDCHAR

STARTCHAR parenleft
ENCODING 40
SWIDTH 273 0
DWIDTH 4 0
BBX 4 12 1 -3
BITMAP
30
60
60
60
C0
C0
C0
C0
C0
C0
C0
60
ENDCHAR

STARTCHAR parenright
ENCODING 41
SWIDTH 273 0
DWIDTH 4 0
BBX 4 12 0 -3
BITMAP
60
30
30
30
30
30
30
30
60
60
60
C0
ENDCHAR

STARTCHAR asterisk
ENCODING 42
SWIDTH 319 0
DWIDTH 4 0
BBX 4 5 0 4
BITMAP
60
F0
60
F0
B0
ENDCHAR

STARTCHAR plus
ENCODING 43
SWIDTH 479 0
DWIDTH 6 0
BBX 5 6 1 2
BITMAP
20
20
F8
F8
20
20
ENDCHAR

STARTCHAR comma
ENCODING 44
SWIDTH 228 0
DWIDTH 3 0
BBX 2 4 1 -2
BITMAP
C0
C0
40
80
ENDCHAR

STARTCHAR minus
ENCODING 45
SWIDTH 479 0
DWIDTH 6 0
BBX 5 2 1 4
BITMAP
F8
F8
ENDCHAR

STARTCHAR period
ENCODING 46
SWIDTH 228 0
DWIDTH 3 0
BBX 2 2 1 0
BITMAP
C0
C0
ENDCHAR

STARTCHAR slash
ENCODING 47
SWIDTH 228 0
DWIDTH 3 0
BBX 5 10 -1 -1
BITMAP
18
18
18
30
30
60
60
C0
C0
C0
ENDCHAR

STARTCHAR zero
ENCODING 48
SWIDTH 456 0
DWIDTH 6 0
BBX 5 9 1 0
BITMAP
30
58
58
D8
D8
D8
D0
D0
60
ENDCHAR

STARTCHAR one
ENCODING 49
SWIDTH 456 0
DWIDTH 6 0
BBX 4 9 2 0
BITMAP
30
F0
30
60
60
60
60
C0
C0
ENDCHAR

STARTCHAR two
ENCODING 50
SWIDTH 456 0
DWIDTH 6 0
BBX 5 9 1 0
BITMAP
30
58
98
18
30
60
C0
C0
F0
ENDCHAR

STARTCHAR three
ENCODING 51
SWIDTH 456 0
DWIDTH 6 0
BBX 5 9 1 0
BITMAP
70
98
18
30
30
18
98
B0
60
ENDCHAR

STARTCHAR four
ENCODING 52
SWIDTH 456 0
DWIDTH 6 0
BBX 6 9 0 0
BITMAP
04
0C
1C
2C
58
D8
FC
18
18
ENDCHAR

STARTCHAR five
ENCODING 53
SWIDTH 456 0
DWIDTH 6 0
BBX 6 9 0 0
BITMAP
3C
30
60
78
6C
0C
CC
58
30
ENDCHAR

STARTCHAR six
ENCODING 54
SWIDTH 456 0
DWIDTH 6 0
BBX 5 9 1 0
BITMAP
38
60
40
D0
F8
D8
D8
D0
60
ENDCHAR

STARTCHAR seven
ENCODING 55
SWIDTH 456 0
DWIDTH 6 0
BBX 5 9 1 0
BITMAP
F8
18
30
30
60
60
C0
C0
C0
ENDCHAR

STARTCHAR eight
ENCODING 56
SWIDTH 456 0
DWIDTH 6 0
BBX 6 9 0 0
BITMAP
38
6C
6C
28
70
D8
D8
D0
60
ENDCHAR

STARTCHAR nine
ENCODING 57
SWIDTH 456 0
DWIDTH 6 0
BBX 5 9 1 0
BITMAP
30
58
D8
D8
F8
58
10
30
E0
ENDCHAR

STARTCHAR colon
ENCODING 58
SWIDTH 273 0
DWIDTH 4 0
BBX 3 7 1 0
BITMAP
60
60
00
00
00
C0
C0
ENDCHAR

STARTCHAR semicolon
ENCODING 59
SWIDTH 273 0
DWIDTH 4 0
BBX 3 9 1 -2
BITMAP
60
60
00
00
00
C0
C0
40
80
ENDCHAR

STARTCHAR less
ENCODING 60
SWIDTH 479 0
DWIDTH 6 0
BBX 5 7 1 1
BITMAP
08
38
70
C0
70
38
08
ENDCHAR

STARTCHAR equal
ENCODING 61
SWIDTH 479 0
DWIDTH 6 0
BBX 5 5 1 2
BITMAP
F8
F8
00
F8
F8
ENDCHAR

STARTCHAR greater
ENCODING 62
SWIDTH 479 0
DWIDTH 6 0
BBX 5 7 1 1
BITMAP
80
E0
70
18
70
E0
80
ENDCHAR

STARTCHAR question
ENCODING 63
SWIDTH 501 0
DWIDTH 7 0
BBX 5 9 1 0
BITMAP
30
78
D8
18
30
60
00
C0
C0
ENDCHAR

STARTCHAR at
ENCODING 64
SWIDTH 800 0
DWIDTH 10 0
BBX 10 12 0 -3
BITMAP
1F00
60C0
5F40
9340
B240
A240
A2C0
B680
9B00
4040
60C0
1F00
ENDCHAR

STARTCHAR A
ENCODING 65
SWIDTH 592 0
DWIDTH 8 0
BBX 7 9 1 0
BITMAP
0C
1C
14
36
36
7E
66
C6
C6
ENDCHAR

STARTCHAR B
ENCODING 66
SWIDTH 592 0
DWIDTH 8 0
BBX 7 9 1 0
BITMAP
3C
36
36
66
7C
66
C6
CC
F8
ENDCHAR

STARTCHAR C
ENCODING 67
SWIDTH 592 0
DWIDTH 8 0
BBX 7 9 2 0
BITMAP
1C
36
66
60
C0
C0
CC
D8
70
ENDCHAR

STARTCHAR D
ENCODING 68
SWIDTH 592 0
DWIDTH 8 0
BBX 7 9 1 0
BITMAP
3C
36
36
66
66
6C
CC
D8
F0
ENDCHAR

STARTCHAR E
ENCODING 69
SWIDTH 547 0
DWIDTH 7 0
BBX 7 9 1 0
BITMAP
3E
30
30
60
7C
60
C0
C0
F8
ENDCHAR

STARTCHAR F
ENCODING 70
SWIDTH 501 0
DWIDTH 7 0
BBX 7 9 1 0
BITMAP
3E
30
30
60
7C
60
C0
C0
C0
ENDCHAR

STARTCHAR G
ENCODING 71
SWIDTH 638 0
DWIDTH 8 0
BBX 7 9 1 0
BITMAP
1C
36
66
60
CE
C6
CC
CC
78
ENDCHAR

STARTCHAR H
ENCODING 72
SWIDTH 592 0
DWIDTH 8 0
BBX 8 9 1 0
BITMAP
33
33
33
66
7E
66
CC
CC
CC
ENDCHAR

STARTCHAR I
ENCODING 73
SWIDTH 228 0
DWIDTH 4 0
BBX 4 9 1 0
BITMAP
30
30
30
60
60
60
C0
C0
C0
ENDCHAR

STARTCHAR J
ENCODING 74
SWIDTH 456 0
DWIDTH 6 0
BBX 7 9 0 0
BITMAP
06
06
06
0C
0C
0C
D8
D8
70
ENDCHAR

STARTCHAR K
ENCODING 75
SWIDTH 592 0
DWIDTH 8 0
BBX 8 9 1 0
BITMAP
33
36
3C
78
78
6C
CC
C6
C6
ENDCHAR

STARTCHAR L
ENCODING 76
SWIDTH 501 0
DWIDTH 6 0
BBX 5 9 1 0
BITMAP
30
30
30
60
60
60
C0
C0
F8
ENDCHAR

STARTCHAR M
ENCODING 77
SWIDTH 683 0
DWIDTH 10 0
BBX 10 9 1 0
BITMAP
30C0
31C0
3AC0
6A80
6D80
6D80
CB00
DB00
DB00
ENDCHAR

STARTCHAR N
ENCODING 78
SWIDTH 592 0
DWIDTH 8 0
BBX 8 9 1 0
BITMAP
31
33
3B
7A
6E
6E
CC
CC
CC
ENDCHAR

STARTCHAR O
ENCODING 79
SWIDTH 638 0
DWIDTH 8 0
BBX 7 9 1 0
BITMAP
1C
36
66
66
C6
CC
CC
D8
70
ENDCHAR

STARTCHAR P
ENCODING 80
SWIDTH 547 0
DWIDTH 7 0
BBX 7 9 1 0
BITMAP
3C
36
36
66
6C
78
C0
C0
C0
ENDCHAR

STARTCHAR Q
ENCODING 81
SWIDTH 638 0
DWIDTH 8 0
BBX 7 10 1 -1
BITMAP
1C
36
66
66
C6
CC
EC
D8
7C
0C
ENDCHAR

STARTCHAR R
ENCODING 82
SWIDTH 592 0
DWIDTH 8 0
BBX 8 9 1 0
BITMAP
3E
33
33
66
7C
68
CC
CC
C6
ENDCHAR

STARTCHAR S
ENCODING 83
SWIDTH 547 0
DWIDTH 7 0
BBX 7 9 1 0
BITMAP
3C
66
66
70
38
1C
CC
CC
78
ENDCHAR

STARTCHAR T
ENCODING 84
SWIDTH 501 0
DWIDTH 6 0
BBX 6 9 2 0
BITMAP
FC
30
30
60
60
60
C0
C0
C0
ENDCHAR

STARTCHAR U
ENCODING 85
SWIDTH 592 0
DWIDTH 8 0
BBX 8 9 1 0
BITMAP
33
33
63
66
66
C6
CC
CC
78
ENDCHAR

STARTCHAR V
ENCODING 86
SWIDTH 547 0
DWIDTH 7 0
BBX 6 9 2 0
BITMAP
CC
CC
D8
D8
D8
F0
E0
E0
C0
ENDCHAR

STARTCHAR W
ENCODING 87
SWIDTH 774 0
DWIDTH 9 0
BBX 10 9 1 0
BITMAP
CCC0
CCC0
DD80
D580
D700
F700
E700
E600
C600
ENDCHAR

STARTCHAR X
ENCODING 88
SWIDTH 547 0
DWIDTH 6 0
BBX 7 9 0 0
BITMAP
66
6C
2C
38
38
78
68
CC
CC
ENDCHAR

STARTCHAR Y
ENCODING 89
SWIDTH 547 0
DWIDTH 6 0
BBX 6 9 2 0
BITMAP
CC
D8
D8
70
60
60
C0
C0
C0
ENDCHAR

STARTCHAR Z
ENCODING 90
SWIDTH 501 0
DWIDTH 7 0
BBX 7 9 1 0
BITMAP
7E
06
0C
18
18
30
60
C0
FC
ENDCHAR

STARTCHAR bracketleft
ENCODING 91
SWIDTH 273 0
DWIDTH 4 0
BBX 5 11 0 -2
BITMAP
38
30
30
30
60
60
60
60
C0
C0
E0
ENDCHAR

STARTCHAR backslash
ENCODING 92
SWIDTH 228 0
DWIDTH 3 0
BBX 5 10 -1 -1
BITMAP
C0
C0
C0
60
60
30
30
18
18
18
ENDCHAR

STARTCHAR bracketright
ENCODING 93
SWIDTH 273 0
DWIDTH 4 0
BBX 5 11 0 -2
BITMAP
38
18
18
18
30
30
30
60
60
60
E0
ENDCHAR

STARTCHAR asciicircum
ENCODING 94
SWIDTH 479 0
DWIDTH 6 0
BBX 6 5 0 4
BITMAP
30
30
78
48
CC
ENDCHAR

STARTCHAR underscore
ENCODING 95
SWIDTH 456 0
DWIDTH 6 0
BBX 6 2 0 -3
BITMAP
FC
FC
ENDCHAR

STARTCHAR quoteleft
ENCODING 96
SWIDTH 228 0
DWIDTH 3 0
BBX 2 4 1 5
BITMAP
40
80
C0
C0
ENDCHAR

STARTCHAR a
ENCODING 97
SWIDTH 456 0
DWIDTH 5 0
BBX 6 7 0 0
BITMAP
38
6C
0C
78
D8
D8
68
ENDCHAR

STARTCHAR b
ENCODING 98
SWIDTH 501 0
DWIDTH 7 0
BBX 6 9 1 0
BITMAP
30
30
3C
6C
6C
4C
D8
D8
F0
ENDCHAR

STARTCHAR c
ENCODING 99
SWIDTH 456 0
DWIDTH 6 0
BBX 6 7 1 0
BITMAP
38
6C
C0
C0
C0
D8
70
ENDCHAR

STARTCHAR d
ENCODING 100
SWIDTH 501 0
DWIDTH 7 0
BBX 7 10 1 0
BITMAP
06
06
06
3C
6C
6C
CC
D8
D8
78
ENDCHAR

STARTCHAR e
ENCODING 101
SWIDTH 456 0
DWIDTH 6 0
BBX 6 7 1 0
BITMAP
38
6C
CC
F8
C0
D8
70
ENDCHAR

STARTCHAR f
ENCODING 102
SWIDTH 273 0
DWIDTH 4 0
BBX 5 9 1 0
BITMAP
18
30
F8
60
60
60
C0
C0
C0
ENDCHAR

STARTCHAR g
ENCODING 103
SWIDTH 501 0
DWIDTH 7 0
BBX 7 9 0 -2
BITMAP
1A
36
36
66
6C
6C
3C
CC
78
ENDCHAR

STARTCHAR h
ENCODING 104
SWIDTH 501 0
DWIDTH 7 0
BBX 6 9 1 0
BITMAP
30
30
3C
6C
6C
6C
D8
D8
D8
ENDCHAR

STARTCHAR i
ENCODING 105
SWIDTH 228 0
DWIDTH 4 0
BBX 3 9 1 0
BITMAP
60
00
60
60
60
C0
C0
C0
C0
ENDCHAR

STARTCHAR j
ENCODING 106
SWIDTH 228 0
DWIDTH 4 0
BBX 5 11 -1 -2
BITMAP
18
00
18
18
18
30
30
30
60
60
C0
ENDCHAR

STARTCHAR k
ENCODING 107
SWIDTH 456 0
DWIDTH 6 0
BBX 6 9 1 0
BITMAP
30
30
2C
78
70
70
D8
D8
D8
ENDCHAR

STARTCHAR l
ENCODING 108
SWIDTH 228 0
DWIDTH 4 0
BBX 4 9 1 0
BITMAP
30
30
30
60
60
60
C0
C0
C0
ENDCHAR

STARTCHAR m
ENCODING 109
SWIDTH 729 0
DWIDTH 10 0
BBX 9 7 1 0
BITMAP
5B00
6D80
6D80
6D80
DB00
DB00
DB00
ENDCHAR

STARTCHAR n
ENCODING 110
SWIDTH 501 0
DWIDTH 7 0
BBX 6 7 1 0
BITMAP
58
6C
6C
6C
D8
D8
D8
ENDCHAR

STARTCHAR o
ENCODING 111
SWIDTH 501 0
DWIDTH 7 0
BBX 6 7 1 0
BITMAP
38
6C
6C
CC
D8
D8
70
ENDCHAR

STARTCHAR p
ENCODING 112
SWIDTH 501 0
DWIDTH 7 0
BBX 7 10 0 -3
BITMAP
3C
36
36
66
66
6C
78
C0
C0
C0
ENDCHAR

STARTCHAR q
ENCODING 113
SWIDTH 501 0
DWIDTH 7 0
BBX 7 10 1 -3
BITMAP
3A
6E
6E
CC
CC
DC
68
18
18
18
ENDCHAR

STARTCHAR r
ENCODING 114
SWIDTH 319 0
DWIDTH 5 0
BBX 5 7 1 0
BITMAP
68
78
60
C0
C0
C0
C0
ENDCHAR

STARTCHAR s
ENCODING 115
SWIDTH 456 0
DWIDTH 4 0
BBX 5 7 0 0
BITMAP
38
68
60
30
30
B0
E0
ENDCHAR

STARTCHAR t
ENCODING 116
SWIDTH 273 0
DWIDTH 4 0
BBX 5 9 1 0
BITMAP
30
30
F8
60
60
C0
C0
C0
60
ENDCHAR

STARTCHAR u
ENCODING 117
SWIDTH 501 0
DWIDTH 7 0
BBX 6 7 1 0
BITMAP
6C
6C
6C
D8
D8
D8
68
ENDCHAR

STARTCHAR v
ENCODING 118
SWIDTH 456 0
DWIDTH 6 0
BBX 6 7 1 0
BITMAP
CC
CC
D8
D8
70
70
60
ENDCHAR

STARTCHAR w
ENCODING 119
SWIDTH 638 0
DWIDTH 8 0
BBX 9 7 1 0
BITMAP
D980
DB00
DB00
FE00
6E00
6C00
6C00
ENDCHAR

STARTCHAR x
ENCODING 120
SWIDTH 456 0
DWIDTH 5 0
BBX 6 7 0 0
BITMAP
6C
6C
38
30
70
D8
D8
ENDCHAR

STARTCHAR y
ENCODING 121
SWIDTH 456 0
DWIDTH 5 0
BBX 6 9 0 -2
BITMAP
6C
6C
68
38
30
30
60
60
C0
ENDCHAR

STARTCHAR z
ENCODING 122
SWIDTH 410 0
DWIDTH 5 0
BBX 6 7 0 0
BITMAP
7C
0C
18
30
60
C0
F8
ENDCHAR

STARTCHAR braceleft
ENCODING 123
SWIDTH 319 0
DWIDTH 4 0
BBX 5 12 0 -3
BITMAP
18
30
30
30
60
C0
60
60
60
60
60
30
ENDCHAR

STARTCHAR bar
ENCODING 124
SWIDTH 230 0
DWIDTH 3 0
BBX 2 13 1 -4
BITMAP
C0
C0
C0
C0
C0
C0
C0
C0
C0
C0
C0
C0
C0
ENDCHAR

STARTCHAR braceright
ENCODING 125
SWIDTH 319 0
DWIDTH 4 0
BBX 5 12 0 -3
BITMAP
60
30
30
30
30
30
18
30
60
60
60
C0
ENDCHAR

STARTCHAR asciitilde
ENCODING 126
SWIDTH 479 0
DWIDTH 6 0
BBX 5 3 1 3
BITMAP
68
F8
B0
ENDCHAR

STARTCHAR space
ENCODING 160
SWIDTH 228 0
DWIDTH 4 0
BBX 0 0 0 0
BITMAP
ENDCHAR

STARTCHAR Aogonek
ENCODING 161
SWIDTH 592 0
DWIDTH 8 0
BBX 8 12 1 -3
BITMAP
0C
1C
14
36
36
7E
66
C6
C6
06
06
03
ENDCHAR

STARTCHAR breve
ENCODING 162
SWIDTH 273 0
DWIDTH 4 0
BBX 5 2 0 8
BITMAP
88
70
ENDCHAR

STARTCHAR Lslash
ENCODING 163
SWIDTH 501 0
DWIDTH 6 0
BBX 6 9 0 0
BITMAP
18
18
1C
38
30
70
E0
60
7C
ENDCHAR

STARTCHAR currency
ENCODING 164
SWIDTH 456 0
DWIDTH 6 0
BBX 6 6 0 2
BITMAP
48
FC
68
58
FC
48
ENDCHAR

STARTCHAR Lcaron
ENCODING 165
SWIDTH 501 0
DWIDTH 6 0
BBX 7 9 1 0
BITMAP
36
36
3C
60
60
60
C0
C0
F8
ENDCHAR

STARTCHAR Sacute
ENCODING 166
SWIDTH 547 0
DWIDTH 7 0
BBX 7 12 1 0
BITMAP
0C
18
00
3C
66
66
70
38
1C
CC
CC
78
ENDCHAR

STARTCHAR section
ENCODING 167
SWIDTH 456 0
DWIDTH 6 0
BBX 6 12 0 -3
BITMAP
38
6C
6C
30
78
D8
D8
70
38
D8
D8
70
ENDCHAR

STARTCHAR dieresis
ENCODING 168
SWIDTH 273 0
DWIDTH 4 0
BBX 5 2 0 7
BITMAP
D8
D8
ENDCHAR

STARTCHAR Scaron
ENCODING 169
SWIDTH 547 0
DWIDTH 7 0
BBX 8 12 1 0
BITMAP
1B
0E
00
3C
66
66
70
38
1C
CC
CC
78
ENDCHAR

STARTCHAR Scommaaccent
ENCODING 170
SWIDTH 547 0
DWIDTH 7 0
BBX 7 13 1 -4
BITMAP
3C
66
66
70
38
1C
CC
CC
78
00
30
30
60
ENDCHAR

STARTCHAR Tcaron
ENCODING 171
SWIDTH 501 0
DWIDTH 6 0
BBX 6 12 2 0
BITMAP
6C
38
00
FC
30
30
60
60
60
C0
C0
C0
ENDCHAR

STARTCHAR Zacute
ENCODING 172
SWIDTH 501 0
DWIDTH 7 0
BBX 7 12 1 0
BITMAP
0C
18
00
7E
06
0C
18
18
30
60
C0
FC
ENDCHAR

STARTCHAR hyphen
ENCODING 173
SWIDTH 273 0
DWIDTH 4 0
BBX 3 2 1 3
BITMAP
E0
E0
ENDCHAR

STARTCHAR Zcaron
ENCODING 174
SWIDTH 501 0
DWIDTH 7 0
BBX 7 12 1 0
BITMAP
36
1C
00
7E
06
0C
18
18
30
60
C0
FC
ENDCHAR

STARTCHAR Zdotaccent
ENCODING 175
SWIDTH 501 0
DWIDTH 7 0
BBX 7 12 1 0
BITMAP
0C
0C
00
7E
06
0C
18
18
30
60
C0
FC
ENDCHAR

STARTCHAR degree
ENCODING 176
SWIDTH 328 0
DWIDTH 4 0
BBX 3 4 1 5
BITMAP
40
A0
A0
40
ENDCHAR

STARTCHAR aogonek
ENCODING 177
SWIDTH 456 0
DWIDTH 5 0
BBX 6 10 0 -3
BITMAP
38
6C
0C
78
D8
D8
68
18
18
0C
ENDCHAR

STARTCHAR ogonek
ENCODING 178
SWIDTH 273 0
DWIDTH 4 0
BBX 3 3 1 -3
BITMAP
C0
C0
60
ENDCHAR

STARTCHAR lslash
ENCODING 179
SWIDTH 228 0
DWIDTH 4 0
BBX 6 9 0 0
BITMAP
18
18
1C
38
70
B0
60
60
60
ENDCHAR

STARTCHAR acute
ENCODING 180
SWIDTH 273 0
DWIDTH 4 0
BBX 3 2 1 8
BITMAP
60
C0
ENDCHAR

STARTCHAR lcaron
ENCODING 181
SWIDTH 325 0
DWIDTH 5 0
BBX 7 9 1 0
BITMAP
36
36
3C
60
60
60
C0
C0
C0
ENDCHAR

STARTCHAR sacute
ENCODING 182
SWIDTH 456 0
DWIDTH 4 0
BBX 6 10 0 0
BITMAP
0C
18
00
38
68
60
30
30
B0
E0
ENDCHAR

STARTCHAR caron
ENCODING 183
SWIDTH 273 0
DWIDTH 4 0
BBX 5 2 0 8
BITMAP
D8
70
ENDCHAR

STARTCHAR commaaccent
ENCODING 184
SWIDTH 333 0
DWIDTH 4 0
BBX 3 3 0 -4
BITMAP
60
60
C0
ENDCHAR

STARTCHAR scaron
ENCODING 185
SWIDTH 456 0
DWIDTH 4 0
BBX 6 10 0 0
BITMAP
6C
38
00
38
68
60
30
30
B0
E0
ENDCHAR

STARTCHAR scommaaccent
ENCODING 186
SWIDTH 456 0
DWIDTH 4 0
BBX 5 11 0 -4
BITMAP
38
68
60
30
30
B0
E0
00
60
60
C0
ENDCHAR

STARTCHAR tcaron
ENCODING 187
SWIDTH 393 0
DWIDTH 5 0
BBX 7 9 1 0
BITMAP
36
36
FC
60
60
C0
C0
C0
60
ENDCHAR

STARTCHAR zacute
ENCODING 188
SWIDTH 410 0
DWIDTH 5 0
BBX 6 10 0 0
BITMAP
0C
18
00
7C
0C
18
30
60
C0
F8
ENDCHAR

STARTCHAR hungarumlaut
ENCODING 189
SWIDTH 273 0
DWIDTH 4 0
BBX 6 2 -1 7
BITMAP
6C
D8
ENDCHAR

STARTCHAR zcaron
ENCODING 190
SWIDTH 410 0
DWIDTH 5 0
BBX 6 10 0 0
BITMAP
6C
38
00
7C
0C
18
30
60
C0
F8
ENDCHAR

STARTCHAR zdotaccent
ENCODING 191
SWIDTH 410 0
DWIDTH 5 0
BBX 6 10 0 0
BITMAP
18
18
00
7C
0C
18
30
60
C0
F8
ENDCHAR

STARTCHAR Racute
ENCODING 192
SWIDTH 592 0
DWIDTH 8 0
BBX 8 12 1 0
BITMAP
06
0C
00
3E
33
33
66
7C
68
CC
CC
C6
ENDCHAR

STARTCHAR Aacute
ENCODING 193
SWIDTH 592 0
DWIDTH 8 0
BBX 7 12 1 0
BITMAP
06
0C
00
0C
1C
14
36
36
7E
66
C6
C6
ENDCHAR

STARTCHAR Acircumflex
ENCODING 194
SWIDTH 592 0
DWIDTH 8 0
BBX 8 12 1 0
BITMAP
0E
1B
00
0C
1C
14
36
36
7E
66
C6
C6
ENDCHAR

STARTCHAR Abreve
ENCODING 195
SWIDTH 592 0
DWIDTH 8 0
BBX 8 12 1 0
BITMAP
33
1E
00
0C
1C
14
36
36
7E
66
C6
C6
ENDCHAR

STARTCHAR Adieresis
ENCODING 196
SWIDTH 592 0
DWIDTH 8 0
BBX 8 12 1 0
BITMAP
1B
1B
00
0C
1C
14
36
36
7E
66
C6
C6
ENDCHAR

STARTCHAR Lacute
ENCODING 197
SWIDTH 501 0
DWIDTH 6 0
BBX 5 12 1 0
BITMAP
18
30
00
30
30
30
60
60
60
C0
C0
F8
ENDCHAR

STARTCHAR Cacute
ENCODING 198
SWIDTH 592 0
DWIDTH 8 0
BBX 7 12 2 0
BITMAP
06
0C
00
1C
36
66
60
C0
C0
CC
D8
70
ENDCHAR

STARTCHAR Ccedilla
ENCODING 199
SWIDTH 592 0
DWIDTH 8 0
BBX 7 12 2 -3
BITMAP
1C
36
66
60
C0
C0
CC
D8
70
30
18
70
ENDCHAR

STARTCHAR Ccaron
ENCODING 200
SWIDTH 592 0
DWIDTH 8 0
BBX 7 12 2 0
BITMAP
36
1C
00
1C
36
66
60
C0
C0
CC
D8
70
ENDCHAR

STARTCHAR Eacute
ENCODING 201
SWIDTH 547 0
DWIDTH 7 0
BBX 7 12 1 0
BITMAP
06
0C
00
3E
30
30
60
7C
60
C0
C0
F8
ENDCHAR

STARTCHAR Eogonek
ENCODING 202
SWIDTH 547 0
DWIDTH 7 0
BBX 7 12 1 -3
BITMAP
3E
30
30
60
7C
60
C0
C0
F8
30
30
18
ENDCHAR

STARTCHAR Edieresis
ENCODING 203
SWIDTH 547 0
DWIDTH 7 0
BBX 8 12 1 0
BITMAP
1B
1B
00
3E
30
30
60
7C
60
C0
C0
F8
ENDCHAR

STARTCHAR Ecaron
ENCODING 204
SWIDTH 547 0
DWIDTH 7 0
BBX 7 12 1 0
BITMAP
36
1C
00
3E
30
30
60
7C
60
C0
C0
F8
ENDCHAR

STARTCHAR Iacute
ENCODING 205
SWIDTH 228 0
DWIDTH 4 0
BBX 5 12 1 0
BITMAP
18
30
00
30
30
30
60
60
60
C0
C0
C0
ENDCHAR

STARTCHAR Icircumflex
ENCODING 206
SWIDTH 228 0
DWIDTH 4 0
BBX 6 12 1 0
BITMAP
38
6C
00
30
30
30
60
60
60
C0
C0
C0
ENDCHAR

STARTCHAR Dcaron
ENCODING 207
SWIDTH 592 0
DWIDTH 8 0
BBX 7 12 1 0
BITMAP
36
1C
00
3C
36
36
66
66
6C
CC
D8
F0
ENDCHAR

STARTCHAR Dcroat
ENCODING 208
SWIDTH 592 0
DWIDTH 8 0
BBX 7 9 1 0
BITMAP
3C
36
36
66
F6
6C
CC
D8
F0
ENDCHAR

STARTCHAR Nacute
ENCODING 209
SWIDTH 592 0
DWIDTH 8 0
BBX 8 12 1 0
BITMAP
06
0C
00
31
33
3B
7A
6E
6E
CC
CC
CC
ENDCHAR

STARTCHAR Ncaron
ENCODING 210
SWIDTH 592 0
DWIDTH 8 0
BBX 8 12 1 0
BITMAP
1B
0E
00
31
33
3B
7A
6E
6E
CC
CC
CC
ENDCHAR

STARTCHAR Oacute
ENCODING 211
SWIDTH 638 0
DWIDTH 8 0
BBX 7 12 1 0
BITMAP
06
0C
00
1C
36
66
66
C6
CC
CC
D8
70
ENDCHAR

STARTCHAR Ocircumflex
ENCODING 212
SWIDTH 638 0
DWIDTH 8 0
BBX 8 12 1 0
BITMAP
0E
1B
00
1C
36
66
66
C6
CC
CC
D8
70
ENDCHAR

STARTCHAR Ohungarumlaut
ENCODING 213
SWIDTH 638 0
DWIDTH 8 0
BBX 8 12 1 0
BITMAP
1B
36
00
1C
36
66
66
C6
CC
CC
D8
70
ENDCHAR

STARTCHAR Odieresis
ENCODING 214
SWIDTH 638 0
DWIDTH 8 0
BBX 7 12 1 0
BITMAP
36
36
00
1C
36
66
66
C6
CC
CC
D8
70
ENDCHAR

STARTCHAR multiply
ENCODING 215
SWIDTH 479 0
DWIDTH 6 0
BBX 5 6 1 2
BITMAP
D8
D8
70
70
F8
D8
ENDCHAR

STARTCHAR Rcaron
ENCODING 216
SWIDTH 592 0
DWIDTH 8 0
BBX 8 12 1 0
BITMAP
1B
0E
00
3E
33
33
66
7C
68
CC
CC
C6
ENDCHAR

STARTCHAR Uring
ENCODING 217
SWIDTH 592 0
DWIDTH 8 0
BBX 8 12 1 0
BITMAP
0E
11
0E
33
33
63
66
66
C6
CC
CC
78
ENDCHAR

STARTCHAR Uacute
ENCODING 218
SWIDTH 592 0
DWIDTH 8 0
BBX 8 12 1 0
BITMAP
06
0C
00
33
33
63
66
66
C6
CC
CC
78
ENDCHAR

STARTCHAR Uhungarumlaut
ENCODING 219
SWIDTH 592 0
DWIDTH 8 0
BBX 9 12 1 0
BITMAP
0D80
1B00
0000
3300
3300
6300
6600
6600
C600
CC00
CC00
7800
ENDCHAR

STARTCHAR Udieresis
ENCODING 220
SWIDTH 592 0
DWIDTH 8 0
BBX 8 12 1 0
BITMAP
1B
1B
00
33
33
63
66
66
C6
CC
CC
78
ENDCHAR

STARTCHAR Yacute
ENCODING 221
SWIDTH 547 0
DWIDTH 7 0
BBX 6 12 2 0
BITMAP
18
30
00
CC
D8
D8
70
60
60
C0
C0
C0
ENDCHAR

STARTCHAR Tcommaaccent
ENCODING 222
SWIDTH 501 0
DWIDTH 6 0
BBX 7 13 1 -4
BITMAP
7E
18
18
30
30
30
60
60
60
00
60
60
C0
ENDCHAR

STARTCHAR germandbls
ENCODING 223
SWIDTH 501 0
DWIDTH 7 0
BBX 6 9 1 0
BITMAP
38
34
2C
6C
78
68
CC
CC
D8
ENDCHAR

STARTCHAR racute
ENCODING 224
SWIDTH 319 0
DWIDTH 5 0
BBX 6 10 1 0
BITMAP
0C
18
00
68
78
60
C0
C0
C0
C0
ENDCHAR

STARTCHAR aacute
ENCODING 225
SWIDTH 456 0
DWIDTH 5 0
BBX 6 10 0 0
BITMAP
0C
18
00
38
6C
0C
78
D8
D8
68
ENDCHAR

STARTCHAR acircumflex
ENCODING 226
SWIDTH 456 0
DWIDTH 5 0
BBX 7 10 0 0
BITMAP
1C
36
00
38
6C
0C
78
D8
D8
68
ENDCHAR

STARTCHAR abreve
ENCODING 227
SWIDTH 456 0
DWIDTH 5 0
BBX 6 10 0 0
BITMAP
44
38
00
38
6C
0C
78
D8
D8
68
ENDCHAR

STARTCHAR adieresis
ENCODING 228
SWIDTH 456 0
DWIDTH 5 0
BBX 6 10 0 0
BITMAP
6C
6C
00
38
6C
0C
78
D8
D8
68
ENDCHAR

STARTCHAR lacute
ENCODING 229
SWIDTH 228 0
DWIDTH 4 0
BBX 5 12 1 0
BITMAP
18
30
00
30
30
30
60
60
60
C0
C0
C0
ENDCHAR

STARTCHAR cacute
ENCODING 230
SWIDTH 456 0
DWIDTH 6 0
BBX 6 10 1 0
BITMAP
0C
18
00
38
6C
C0
C0
C0
D8
70
ENDCHAR

STARTCHAR ccedilla
ENCODING 231
SWIDTH 456 0
DWIDTH 6 0
BBX 6 10 1 -3
BITMAP
38
6C
C0
C0
C0
D8
70
20
30
E0
ENDCHAR

STARTCHAR ccaron
ENCODING 232
SWIDTH 456 0
DWIDTH 6 0
BBX 6 10 1 0
BITMAP
6C
38
00
38
6C
C0
C0
C0
D8
70
ENDCHAR

STARTCHAR eacute
ENCODING 233
SWIDTH 456 0
DWIDTH 6 0
BBX 6 10 1 0
BITMAP
18
30
00
38
6C
CC
F8
C0
D8
70
ENDCHAR

STARTCHAR eogonek
ENCODING 234
SWIDTH 456 0
DWIDTH 6 0
BBX 6 10 1 -3
BITMAP
38
6C
CC
F8
C0
D8
70
30
30
18
ENDCHAR

STARTCHAR edieresis
ENCODING 235
SWIDTH 456 0
DWIDTH 6 0
BBX 6 10 1 0
BITMAP
6C
6C
00
38
6C
CC
F8
C0
D8
70
ENDCHAR

STARTCHAR ecaron
ENCODING 236
SWIDTH 456 0
DWIDTH 6 0
BBX 6 10 1 0
BITMAP
44
38
00
38
6C
CC
F8
C0
D8
70
ENDCHAR

STARTCHAR iacute
ENCODING 237
SWIDTH 228 0
DWIDTH 4 0
BBX 4 10 1 0
BITMAP
30
60
00
60
60
60
C0
C0
C0
C0
ENDCHAR

STARTCHAR icircumflex
ENCODING 238
SWIDTH 228 0
DWIDTH 4 0
BBX 5 10 1 0
BITMAP
70
D8
00
60
60
60
C0
C0
C0
C0
ENDCHAR

STARTCHAR dcaron
ENCODING 239
SWIDTH 607 0
DWIDTH 8 0
BBX 10 10 1 0
BITMAP
06C0
06C0
0780
3C00
6C00
6C00
CC00
D800
D800
7800
ENDCHAR

STARTCHAR dcroat
ENCODING 240
SWIDTH 501 0
DWIDTH 7 0
BBX 8 10 1 0
BITMAP
06
1F
06
3C
6C
6C
CC
D8
D8
78
ENDCHAR

STARTCHAR nacute
ENCODING 241
SWIDTH 501 0
DWIDTH 7 0
BBX 6 10 1 0
BITMAP
0C
18
00
58
6C
6C
6C
D8
D8
D8
ENDCHAR

STARTCHAR ncaron
ENCODING 242
SWIDTH 501 0
DWIDTH 7 0
BBX 7 10 1 0
BITMAP
36
1C
00
58
6C
6C
6C
D8
D8
D8
ENDCHAR

STARTCHAR oacute
ENCODING 243
SWIDTH 501 0
DWIDTH 7 0
BBX 6 10 1 0
BITMAP
0C
18
00
38
6C
6C
CC
D8
D8
70
ENDCHAR

STARTCHAR ocircumflex
ENCODING 244
SWIDTH 501 0
DWIDTH 7 0
BBX 7 10 1 0
BITMAP
1C
36
00
38
6C
6C
CC
D8
D8
70
ENDCHAR

STARTCHAR ohungarumlaut
ENCODING 245
SWIDTH 501 0
DWIDTH 7 0
BBX 8 10 1 0
BITMAP
1B
36
00
38
6C
6C
CC
D8
D8
70
ENDCHAR

STARTCHAR odieresis
ENCODING 246
SWIDTH 501 0
DWIDTH 7 0
BBX 6 10 1 0
BITMAP
6C
6C
00
38
6C
6C
CC
D8
D8
70
ENDCHAR

STARTCHAR divide
ENCODING 247
SWIDTH 479 0
DWIDTH 6 0
BBX 5 8 1 1
BITMAP
20
20
00
F8
F8
00
20
20
ENDCHAR

STARTCHAR rcaron
ENCODING 248
SWIDTH 319 0
DWIDTH 4 0
BBX 7 10 1 0
BITMAP
36
1C
00
68
78
60
C0
C0
C0
C0
ENDCHAR

STARTCHAR uring
ENCODING 249
SWIDTH 501 0
DWIDTH 7 0
BBX 6 11 1 0
BITMAP
38
6C
38
00
6C
6C
6C
D8
D8
D8
68
ENDCHAR

STARTCHAR uacute
ENCODING 250
SWIDTH 501 0
DWIDTH 7 0
BBX 6 10 1 0
BITMAP
0C
18
00
6C
6C
6C
D8
D8
D8
68
ENDCHAR

STARTCHAR uhungarumlaut
ENCODING 251
SWIDTH 501 0
DWIDTH 7 0
BBX 7 10 1 0
BITMAP
36
6C
00
6C
6C
6C
D8
D8
D8
68
ENDCHAR

STARTCHAR udieresis
ENCODING 252
SWIDTH 501 0
DWIDTH 7 0
BBX 7 10 1 0
BITMAP
36
36
00
6C
6C
6C
D8
D8
D8
68
ENDCHAR

STARTCHAR yacute
ENCODING 253
SWIDTH 456 0
DWIDTH 5 0
BBX 6 12 0 -2
BITMAP
0C
18
00
6C
6C
68
38
30
30
60
60
C0
ENDCHAR

STARTCHAR tcommaaccent
ENCODING 254
SWIDTH 273 0
DWIDTH 4 0
BBX 6 13 0 -4
BITMAP
18
18
7C
30
30
60
60
60
30
00
60
60
C0
ENDCHAR

STARTCHAR dotaccent
ENCODING 255
SWIDTH 273 0
DWIDTH 4 0
BBX 2 2 1 7
BITMAP
C0
C0
ENDCHAR
ENDFONT
